<mxfile host="app.diagrams.net" modified="2024-01-10T11:54:26.359Z" agent="Mozilla/5.0 (X11; Ubuntu; Linux x86_64; rv:120.0) Gecko/20100101 Firefox/120.0" etag="wg9KvOovlxy7yE9u-0Ff" version="22.1.18" type="github">
  <diagram name="Page-1" id="n44ioH2fhHT-iPDDhm-j">
    <mxGraphModel dx="2074" dy="1103" grid="1" gridSize="10" guides="1" tooltips="1" connect="1" arrows="1" fold="1" page="1" pageScale="1" pageWidth="850" pageHeight="1100" math="0" shadow="0">
      <root>
        <mxCell id="0" />
        <mxCell id="1" parent="0" />
        <mxCell id="B_wKqOTC0Gv96Q9B2UT--4" style="edgeStyle=orthogonalEdgeStyle;rounded=0;orthogonalLoop=1;jettySize=auto;html=1;exitX=0.5;exitY=1;exitDx=0;exitDy=0;entryX=0.5;entryY=0;entryDx=0;entryDy=0;" edge="1" parent="1" source="B_wKqOTC0Gv96Q9B2UT--1" target="B_wKqOTC0Gv96Q9B2UT--2">
          <mxGeometry relative="1" as="geometry" />
        </mxCell>
        <mxCell id="B_wKqOTC0Gv96Q9B2UT--1" value="&lt;div&gt;Camera&lt;/div&gt;&lt;div&gt;-Image capture&lt;br&gt;&lt;/div&gt;" style="ellipse;whiteSpace=wrap;html=1;" vertex="1" parent="1">
          <mxGeometry x="79" y="40" width="120" height="80" as="geometry" />
        </mxCell>
        <mxCell id="B_wKqOTC0Gv96Q9B2UT--5" style="edgeStyle=orthogonalEdgeStyle;rounded=0;orthogonalLoop=1;jettySize=auto;html=1;exitX=0.5;exitY=1;exitDx=0;exitDy=0;entryX=0.5;entryY=0;entryDx=0;entryDy=0;" edge="1" parent="1" source="B_wKqOTC0Gv96Q9B2UT--2" target="B_wKqOTC0Gv96Q9B2UT--3">
          <mxGeometry relative="1" as="geometry" />
        </mxCell>
        <mxCell id="B_wKqOTC0Gv96Q9B2UT--2" value="&lt;div&gt;Undistort image&lt;/div&gt;&lt;div&gt;- OpenCV&lt;br&gt;&lt;/div&gt;" style="ellipse;whiteSpace=wrap;html=1;" vertex="1" parent="1">
          <mxGeometry x="79" y="170" width="120" height="80" as="geometry" />
        </mxCell>
        <mxCell id="B_wKqOTC0Gv96Q9B2UT--8" style="edgeStyle=orthogonalEdgeStyle;rounded=0;orthogonalLoop=1;jettySize=auto;html=1;exitX=0.5;exitY=1;exitDx=0;exitDy=0;" edge="1" parent="1" source="B_wKqOTC0Gv96Q9B2UT--3" target="B_wKqOTC0Gv96Q9B2UT--6">
          <mxGeometry relative="1" as="geometry" />
        </mxCell>
        <mxCell id="B_wKqOTC0Gv96Q9B2UT--3" value="&lt;div&gt;Obstacle detection&lt;/div&gt;&lt;div&gt;&amp;amp;&lt;/div&gt;&lt;div&gt;Object identification&lt;br&gt;&lt;/div&gt;" style="ellipse;whiteSpace=wrap;html=1;" vertex="1" parent="1">
          <mxGeometry x="79" y="300" width="120" height="80" as="geometry" />
        </mxCell>
        <mxCell id="B_wKqOTC0Gv96Q9B2UT--9" style="edgeStyle=orthogonalEdgeStyle;rounded=0;orthogonalLoop=1;jettySize=auto;html=1;exitX=0.5;exitY=1;exitDx=0;exitDy=0;entryX=0.5;entryY=0;entryDx=0;entryDy=0;" edge="1" parent="1" source="B_wKqOTC0Gv96Q9B2UT--6">
          <mxGeometry relative="1" as="geometry">
            <mxPoint x="139" y="560" as="targetPoint" />
          </mxGeometry>
        </mxCell>
        <mxCell id="B_wKqOTC0Gv96Q9B2UT--6" value="Make BEV" style="ellipse;whiteSpace=wrap;html=1;" vertex="1" parent="1">
          <mxGeometry x="79" y="430" width="120" height="80" as="geometry" />
        </mxCell>
        <mxCell id="B_wKqOTC0Gv96Q9B2UT--10" value="" style="rounded=1;whiteSpace=wrap;html=1;fillColor=none;dashed=1;" vertex="1" parent="1">
          <mxGeometry x="60" y="30" width="210" height="380" as="geometry" />
        </mxCell>
        <mxCell id="B_wKqOTC0Gv96Q9B2UT--11" value="" style="endArrow=none;html=1;rounded=0;entryX=0.75;entryY=0;entryDx=0;entryDy=0;exitX=0.75;exitY=1;exitDx=0;exitDy=0;dashed=1;" edge="1" parent="1" source="B_wKqOTC0Gv96Q9B2UT--10" target="B_wKqOTC0Gv96Q9B2UT--10">
          <mxGeometry width="50" height="50" relative="1" as="geometry">
            <mxPoint x="400" y="590" as="sourcePoint" />
            <mxPoint x="450" y="540" as="targetPoint" />
          </mxGeometry>
        </mxCell>
        <mxCell id="B_wKqOTC0Gv96Q9B2UT--12" value="&lt;div style=&quot;font-size: 13px;&quot;&gt;&lt;font style=&quot;font-size: 19px;&quot;&gt;One node cluster per camera&lt;/font&gt;&lt;/div&gt;" style="text;html=1;strokeColor=none;fillColor=none;align=center;verticalAlign=middle;whiteSpace=wrap;rounded=0;rotation=-90;" vertex="1" parent="1">
          <mxGeometry x="115" y="205" width="260" height="30" as="geometry" />
        </mxCell>
        <mxCell id="B_wKqOTC0Gv96Q9B2UT--27" value="Send BEV image to ROC" style="text;html=1;strokeColor=none;fillColor=none;align=center;verticalAlign=middle;whiteSpace=wrap;rounded=0;" vertex="1" parent="1">
          <mxGeometry x="79" y="570" width="120" height="40" as="geometry" />
        </mxCell>
      </root>
    </mxGraphModel>
  </diagram>
</mxfile>
